# xmcd CD database file
#
# Track frame offsets:
#	150
#	19577
#	51990
#	74597
#	100215
#	128570
#	152875
#	178505
#	197130
#	222695
#	243237
#	260747
#	289515
#
# Disc length: 4157 seconds
#
# Revision: 0
# Processed by: cddbd v1.5.2PL0 Copyright (c) Steve Scherf et al.
# Submitted via: CDex 1.51
#
DISCID=c4103b0d
DTITLE=Meredith D'Ambrosio - Love Is for the Birds
DYEAR=2002
DGENRE=Jazz
TTITLE0=Cup Of Life ( Cup Bearers)
TTITLE1=Steppenwolf
TTITLE2=Rhyme Of Spring (Poetic Spring)
TTITLE3=Valentine
TTITLE4=The Magic Rapture (Rapture)
TTITLE5=I May Be The One
TTITLE6=Don'T Go (Josephine)
TTITLE7=Tell This Poor Fool 
TTITLE8=Just A Dream (Falando De Orlando)
TTITLE9=Love Is For The Birds
TTITLE10=Beloved (Daahoud)
TTITLE11=Blame It All On Spring
TTITLE12=Frishberg And Dourough
EXTD=YEAR: 2002
EXTT0=
EXTT1=
EXTT2=
EXTT3=
EXTT4=
EXTT5=
EXTT6=
EXTT7=
EXTT8=
EXTT9=
EXTT10=
EXTT11=
EXTT12=
PLAYORDER=
